<svg width="323.4875px" height="122px" xmlns="http://www.w3.org/2000/svg" viewBox="88.25625 14 323.4875 122" style="background: rgba(0, 0, 0, 0);" preserveAspectRatio="xMidYMid"><defs><filter id="editing-hole" x="-100%" y="-100%" width="300%" height="300%"><feFlood flood-color="#000" result="black"></feFlood><feMorphology operator="dilate" radius="2" in="SourceGraphic" result="erode"></feMorphology><feGaussianBlur in="erode" stdDeviation="4" result="blur"></feGaussianBlur><feOffset in="blur" dx="2" dy="2" result="offset"></feOffset><feComposite operator="atop" in="offset" in2="black" result="merge"></feComposite><feComposite operator="in" in="merge" in2="SourceGraphic" result="inner-shadow"></feComposite></filter></defs><g filter="url(#editing-hole)"><g transform="translate(141.10880064964294, 92.5999984741211)"><path d="M47.17 1.28L47.17 1.28L47.17 1.28Q39.42 1.28 39.42-4.74L39.42-4.74L39.42-4.74Q39.42-7.36 40.54-12.45L40.54-12.45L40.54-12.45Q41.66-17.54 42.05-19.58L42.05-19.58L42.05-19.58Q42.94-24.26 42.94-25.73L42.94-25.73L42.94-25.73Q42.94-28.99 40.51-28.99L40.51-28.99L40.51-28.99Q38.91-28.99 37.38-26.78L37.38-26.78L37.38-26.78Q35.84-24.58 35.14-20.16L35.14-20.16L31.17 0L18.69 1.28L22.14-16.13L22.14-16.13Q22.72-19.01 23.23-22.27L23.23-22.27L23.23-22.27Q23.74-25.54 23.74-26.05L23.74-26.05L23.74-26.05Q23.74-28.99 21.57-28.99L21.57-28.99L21.57-28.99Q20.10-28.99 18.50-26.82L18.50-26.82L18.50-26.82Q16.90-24.64 16-20.16L16-20.16L12.10 0L-0.51 1.28L6.21-32.64L16.64-33.92L15.55-27.46L15.55-27.46Q17.22-30.91 20.29-32.42L20.29-32.42L20.29-32.42Q23.36-33.92 28.16-33.92L28.16-33.92L28.16-33.92Q30.91-33.92 32.70-32.58L32.70-32.58L32.70-32.58Q34.50-31.23 35.07-29.06L35.07-29.06L35.07-29.06Q36.16-31.30 38.94-32.61L38.94-32.61L38.94-32.61Q41.73-33.92 45.15-33.92L45.15-33.92L45.15-33.92Q48.58-33.92 50.27-33.18L50.27-33.18L50.27-33.18Q51.97-32.45 52.99-31.23L52.99-31.23L52.99-31.23Q54.72-28.99 54.72-24.90L54.72-24.90L54.72-24.90Q54.72-20.86 52.99-12.48L52.99-12.48L52.99-12.48Q52.10-8.38 52.10-6.88L52.10-6.88L52.10-6.88Q52.10-5.38 52.96-4.48L52.96-4.48L52.96-4.48Q53.82-3.58 55.10-3.46L55.10-3.46L55.10-3.46Q54.46-1.28 52.26 0L52.26 0L52.26 0Q50.05 1.28 47.17 1.28ZM73.98 1.28L73.98 1.28L73.98 1.28Q59.90 1.28 59.90-11.97L59.90-11.97L59.90-11.97Q59.90-21.38 65.09-27.46L65.09-27.46L65.09-27.46Q70.59-33.92 80.13-33.92L80.13-33.92L80.13-33.92Q87.04-33.92 90.56-30.72L90.56-30.72L90.56-30.72Q94.08-27.52 94.08-20.80L94.08-20.80L94.08-20.80Q94.08-10.56 88.58-4.61L88.58-4.61L88.58-4.61Q83.20 1.28 73.98 1.28ZM75.65-26.56L75.65-26.56L75.65-26.56Q74.88-24.83 74.27-22.24L74.27-22.24L74.27-22.24Q73.66-19.65 72.90-15.55L72.90-15.55L72.90-15.55Q72.13-11.46 72.13-6.40L72.13-6.40L72.13-6.40Q72.13-4.74 72.67-3.65L72.67-3.65L72.67-3.65Q73.22-2.56 74.69-2.56L74.69-2.56L74.69-2.56Q76.16-2.56 77.09-3.26L77.09-3.26L77.09-3.26Q78.02-3.97 78.72-5.63L78.72-5.63L78.72-5.63Q80-8.58 81.02-14.05L81.02-14.05L81.02-14.05Q82.05-19.52 82.14-21.89L82.14-21.89L82.14-21.89Q82.24-24.26 82.24-26.02L82.24-26.02L82.24-26.02Q82.24-27.78 81.73-28.93L81.73-28.93L81.73-28.93Q81.22-30.08 79.78-30.08L79.78-30.08L79.78-30.08Q78.34-30.08 77.38-29.18L77.38-29.18L77.38-29.18Q76.42-28.29 75.65-26.56ZM111.81 1.28L111.81 1.28L111.81 1.28Q97.73 1.28 97.73-11.97L97.73-11.97L97.73-11.97Q97.73-21.38 102.91-27.46L102.91-27.46L102.91-27.46Q108.42-33.92 117.95-33.92L117.95-33.92L117.95-33.92Q124.86-33.92 128.38-30.72L128.38-30.72L128.38-30.72Q131.90-27.52 131.90-20.80L131.90-20.80L131.90-20.80Q131.90-10.56 126.40-4.61L126.40-4.61L126.40-4.61Q121.02 1.28 111.81 1.28ZM113.47-26.56L113.47-26.56L113.47-26.56Q112.70-24.83 112.10-22.24L112.10-22.24L112.10-22.24Q111.49-19.65 110.72-15.55L110.72-15.55L110.72-15.55Q109.95-11.46 109.95-6.40L109.95-6.40L109.95-6.40Q109.95-4.74 110.50-3.65L110.50-3.65L110.50-3.65Q111.04-2.56 112.51-2.56L112.51-2.56L112.51-2.56Q113.98-2.56 114.91-3.26L114.91-3.26L114.91-3.26Q115.84-3.97 116.54-5.63L116.54-5.63L116.54-5.63Q117.82-8.58 118.85-14.05L118.85-14.05L118.85-14.05Q119.87-19.52 119.97-21.89L119.97-21.89L119.97-21.89Q120.06-24.26 120.06-26.02L120.06-26.02L120.06-26.02Q120.06-27.78 119.55-28.93L119.55-28.93L119.55-28.93Q119.04-30.08 117.60-30.08L117.60-30.08L117.60-30.08Q116.16-30.08 115.20-29.18L115.20-29.18L115.20-29.18Q114.24-28.29 113.47-26.56ZM162.75 1.28L162.75 1.28L162.75 1.28Q155.01 1.28 155.01-4.74L155.01-4.74L155.01-4.74Q155.07-6.40 155.58-9.22L155.58-9.22L156.74-15.10L156.74-15.10Q158.46-23.42 158.46-25.28L158.46-25.28L158.46-25.28Q158.46-28.99 156.29-28.99L156.29-28.99L156.29-28.99Q152.64-28.99 150.72-19.46L150.72-19.46L146.94 0L134.08 1.28L140.74-32.70L151.23-33.92L150.21-27.65L150.21-27.65Q153.22-33.92 162.43-33.92L162.43-33.92L162.43-33.92Q166.91-33.92 168.80-32.03L168.80-32.03L168.80-32.03Q170.69-30.14 170.69-25.92L170.69-25.92L170.69-25.92Q170.69-21.95 168.64-12.67L168.64-12.67L168.64-12.67Q167.68-8.51 167.68-6.94L167.68-6.94L167.68-6.94Q167.68-5.38 168.54-4.48L168.54-4.48L168.54-4.48Q169.41-3.58 170.69-3.46L170.69-3.46L170.69-3.46Q170.05-1.28 167.84 0L167.84 0L167.84 0Q165.63 1.28 162.75 1.28ZM194.94-22.46L194.94-22.46L194.94-22.46Q195.84-24.83 195.84-26.88L195.84-26.88L195.84-26.88Q195.84-30.66 192.77-30.66L192.77-30.66L192.77-30.66Q191.17-30.66 189.86-29.22L189.86-29.22L189.86-29.22Q188.54-27.78 188.54-25.98L188.54-25.98L188.54-25.98Q188.54-24.70 189.57-23.68L189.57-23.68L189.57-23.68Q191.04-22.27 194.82-19.97L194.82-19.97L194.82-19.97Q198.59-17.66 200.03-15.78L200.03-15.78L200.03-15.78Q201.47-13.89 201.47-11.30L201.47-11.30L201.47-11.30Q201.47-8.70 200.22-6.34L200.22-6.34L200.22-6.34Q198.98-3.97 196.74-2.30L196.74-2.30L196.74-2.30Q191.94 1.28 184.26 1.28L184.26 1.28L184.26 1.28Q180.10 1.28 176.90-0.90L176.90-0.90L176.90-0.90Q173.70-3.01 173.70-5.50L173.70-5.50L173.70-5.50Q173.70-8 175.52-9.47L175.52-9.47L175.52-9.47Q177.34-10.94 180.03-10.94L180.03-10.94L180.03-10.94Q182.72-10.94 184.38-9.92L184.38-9.92L184.38-9.92Q183.55-7.81 183.55-6.40L183.55-6.40L183.55-6.40Q183.55-2.18 187.14-2.18L187.14-2.18L187.14-2.18Q188.67-2.18 189.70-3.14L189.70-3.14L189.70-3.14Q190.72-4.10 190.72-5.76L190.72-5.76L190.72-5.76Q190.72-9.02 185.22-12.48L185.22-12.48L185.22-12.48Q180.74-15.42 179.71-16.58L179.71-16.58L179.71-16.58Q177.98-18.62 177.98-21.18L177.98-21.18L177.98-21.18Q177.98-23.74 179.20-26.18L179.20-26.18L179.20-26.18Q180.42-28.61 182.66-30.34L182.66-30.34L182.66-30.34Q187.33-33.92 195.46-33.92L195.46-33.92L195.46-33.92Q199.62-33.92 202.08-32.26L202.08-32.26L202.08-32.26Q204.54-30.59 204.54-27.78L204.54-27.78L204.54-27.78Q204.54-24.96 202.85-23.36L202.85-23.36L202.85-23.36Q201.15-21.76 198.08-21.76L198.08-21.76L198.08-21.76Q195.97-21.76 194.94-22.46ZM204.99-3.78L204.99-3.78L204.99-3.78Q204.99-6.21 206.88-7.55L206.88-7.55L206.88-7.55Q208.77-8.90 211.46-8.90L211.46-8.90L211.46-8.90Q214.14-8.90 215.78-7.55L215.78-7.55L215.78-7.55Q217.41-6.21 217.41-3.78L217.41-3.78L217.41-3.78Q217.41-1.34 215.58-0.03L215.58-0.03L215.58-0.03Q213.76 1.28 211.07 1.28L211.07 1.28L211.07 1.28Q208.38 1.28 206.69-0.03L206.69-0.03L206.69-0.03Q204.99-1.34 204.99-3.78Z" fill="#ccc"></path></g></g><style>text {
  font-size: 64px;
  font-family: Arial Black;
  dominant-baseline: central;
  text-anchor: middle;
}</style></svg>